<?xml version="1.0" encoding="UTF-8"?> <svg xmlns="http://www.w3.org/2000/svg" width="649" height="423" viewBox="0 0 649 423" fill="none"><path opacity="0.5" d="M711.789 483.73C686.423 490.515 627.175 484.869 602.308 483.415L88.4858 483.651C18.4362 438.907 -61.7474 299.184 102.72 184.623C165.773 140.702 81.1534 55.2374 225.489 18.6893C359.544 -15.2562 330.477 72.1708 521.157 11.2957C664.305 -34.404 721.482 71.0793 731.616 105.292C736.772 122.703 738.102 141.274 742.607 158.916C755.032 207.606 796.467 217.692 819.337 271.845C843.253 328.47 840.535 449.307 711.784 483.74L711.789 483.73Z" fill="#3A68AB"></path><path d="M689 440C689 402.994 534.761 373 344.498 373C154.234 373 0 402.994 0 440C0 477.006 154.239 507 344.498 507C534.756 507 689 477.006 689 440Z" fill="#6B7EE4"></path><path d="M295.467 171.126C295.494 171.126 295.516 171.121 295.543 171.113C295.743 171.059 295.863 170.855 295.805 170.655C281.72 118.503 268.603 81.5927 258.876 66.7253C258.659 66.3965 258.503 66.1566 258.445 66.0366C258.357 65.85 258.13 65.7745 257.943 65.8633C257.757 65.9522 257.681 66.1788 257.77 66.3654C257.85 66.5254 258.001 66.7564 258.246 67.1341C267.932 81.9349 281.009 118.77 295.076 170.85C295.125 171.024 295.285 171.139 295.463 171.126H295.467Z" fill="#F5FFFF"></path><path d="M251.883 63.8639C253.038 65.5346 258.996 68.7071 259.472 68.3783C259.947 68.0495 259.085 61.3534 257.93 59.6827C256.775 58.012 254.486 57.5943 252.816 58.7496C251.145 59.9049 250.727 62.1932 251.883 63.8639Z" fill="#F5FFFF"></path><path d="M263.413 69.1692C262.76 71.1421 263.835 77.9626 264.399 78.1492C264.964 78.3358 269.9 73.5059 270.553 71.5331C271.207 69.5603 270.136 67.4319 268.167 66.7787C266.194 66.1256 264.066 67.192 263.413 69.1648V69.1692Z" fill="#F5FFFF"></path><path d="M255.868 80.8375C257.935 81.0285 264.342 78.4469 264.4 77.856C264.453 77.265 258.637 73.5415 256.566 73.3504C254.5 73.1594 252.665 74.679 252.474 76.7452C252.283 78.8157 253.802 80.6464 255.868 80.8375Z" fill="#F5FFFF"></path><path d="M280.2 103.947C278.752 107.12 279.316 118.704 280.218 119.112C281.124 119.526 290.238 112.359 291.686 109.186C293.135 106.013 291.735 102.268 288.563 100.819C285.39 99.3706 281.644 100.77 280.2 103.943V103.947Z" fill="#F5FFFF"></path><path d="M265.506 122.049C268.922 122.747 280.08 119.592 280.28 118.615C280.48 117.637 271.442 110.372 268.025 109.675C264.608 108.977 261.276 111.185 260.578 114.602C259.88 118.019 262.089 121.352 265.506 122.049Z" fill="#F5FFFF"></path><path d="M288.895 117.135C286.314 120.534 283.865 134.508 284.834 135.246C285.803 135.984 298.617 129.883 301.199 126.488C303.78 123.089 303.123 118.246 299.724 115.66C296.325 113.078 291.481 113.736 288.895 117.135Z" fill="#F5FFFF"></path><path d="M267.94 140.783C272.188 141.2 285.372 135.953 285.492 134.74C285.612 133.527 273.699 125.817 269.451 125.4C265.203 124.982 261.422 128.088 261.009 132.336C260.591 136.584 263.697 140.365 267.945 140.778L267.94 140.783Z" fill="#F5FFFF"></path><path d="M294.028 134.157C291.446 137.552 288.998 151.531 289.966 152.268C290.935 153.006 303.75 146.905 306.331 143.506C308.913 140.112 308.251 135.264 304.856 132.678C301.457 130.096 296.614 130.758 294.028 134.153V134.157Z" fill="#F5FFFF"></path><path d="M273.073 157.805C277.321 158.223 290.504 152.975 290.624 151.762C290.744 150.549 278.832 142.84 274.584 142.427C270.336 142.009 266.555 145.115 266.142 149.363C265.724 153.61 268.83 157.392 273.078 157.805H273.073Z" fill="#F5FFFF"></path><path d="M305.722 155.694C302.039 157.854 294.454 169.842 295.067 170.895C295.685 171.948 309.855 171.188 313.534 169.029C317.217 166.869 318.453 162.137 316.293 158.458C314.134 154.774 309.401 153.539 305.722 155.699V155.694Z" fill="#F5FFFF"></path><path d="M277.565 174.623C281.729 175.569 295.463 172.01 295.734 170.824C296.005 169.637 285.145 160.498 280.986 159.556C276.823 158.609 272.686 161.217 271.74 165.381C270.793 169.544 273.402 173.681 277.565 174.627V174.623Z" fill="#F5FFFF"></path><path d="M268.585 79.9932C267.923 81.9971 269.016 88.9287 269.585 89.1198C270.154 89.3108 275.175 84.401 275.841 82.397C276.503 80.3931 275.419 78.2292 273.415 77.5671C271.411 76.905 269.247 77.9892 268.585 79.9932Z" fill="#F5FFFF"></path><path d="M261.191 91.9858C263.293 92.1813 269.803 89.5553 269.856 88.9554C269.914 88.3556 263.999 84.5698 261.898 84.3743C259.796 84.1788 257.934 85.7251 257.739 87.8268C257.543 89.9285 259.09 91.7903 261.191 91.9858Z" fill="#F5FFFF"></path><path d="M274.557 90.0839C273.384 92.8432 274.126 102.787 274.912 103.121C275.699 103.454 283.377 97.091 284.55 94.3317C285.723 91.5724 284.439 88.3821 281.679 87.2091C278.92 86.036 275.734 87.3202 274.557 90.0795V90.0839Z" fill="#F5FFFF"></path><path d="M262.698 107.093C265.683 107.373 274.93 103.641 275.01 102.787C275.09 101.934 266.692 96.5578 263.706 96.2824C260.72 96.0024 258.076 98.1974 257.797 101.183C257.517 104.169 259.712 106.813 262.698 107.093Z" fill="#F5FFFF"></path><path d="M279.444 188.846C279.444 188.846 307.517 124.404 189.924 95.0737C189.924 95.0737 206.937 218.736 279.444 188.846Z" fill="#D89F12"></path><path d="M189.755 94.9004L281.524 180.235C284.558 161.795 281.248 117.721 189.755 94.9004Z" fill="#F8BA07"></path><path d="M277.676 176.836C277.72 176.831 277.764 176.809 277.8 176.773C277.876 176.689 277.871 176.56 277.791 176.485L189.897 94.7539C189.813 94.6784 189.684 94.6828 189.609 94.7628C189.533 94.8472 189.538 94.9761 189.618 95.0516L277.511 176.782C277.556 176.822 277.618 176.84 277.676 176.836Z" fill="#0E1015"></path><path d="M235.669 137.77C235.771 137.756 235.846 137.672 235.846 137.57C235.846 137.459 235.757 137.365 235.646 137.361L202.308 136.89C202.197 136.881 202.104 136.979 202.099 137.09C202.099 137.201 202.188 137.294 202.299 137.299L235.637 137.77C235.637 137.77 235.655 137.77 235.664 137.77H235.669Z" fill="#0E1015"></path><path d="M254.495 155.276C254.495 155.276 254.521 155.276 254.535 155.268C254.641 155.232 254.699 155.117 254.663 155.01L244.368 123.942C244.333 123.835 244.217 123.778 244.111 123.813C244.004 123.849 243.946 123.964 243.982 124.071L254.277 155.139C254.308 155.232 254.401 155.29 254.495 155.276Z" fill="#0E1015"></path><path d="M253.753 187.646C253.753 187.646 252.66 130.749 156.222 148.86C156.222 148.86 210.484 234.124 253.753 187.646Z" fill="#F8BA07"></path><path d="M156.222 148.856L253.753 187.642C253.753 187.642 219.353 238.247 156.222 148.856Z" fill="#D89F12"></path><path d="M180.344 169.251C180.344 169.251 180.371 169.251 180.389 169.251L204.538 167.433C204.72 167.42 204.858 167.26 204.845 167.078C204.831 166.896 204.667 166.758 204.489 166.771L180.335 168.589C180.153 168.602 180.015 168.762 180.029 168.944C180.042 169.113 180.18 169.242 180.34 169.251H180.344Z" fill="#F8BA07"></path><path d="M211.741 189.424C211.768 189.424 211.79 189.424 211.817 189.419L243.378 183.825C243.56 183.794 243.68 183.621 243.649 183.443C243.618 183.261 243.444 183.141 243.262 183.172L211.701 188.766C211.519 188.797 211.399 188.97 211.43 189.153C211.457 189.308 211.59 189.419 211.741 189.428V189.424Z" fill="#91B5F8"></path><path d="M516.283 400.415C516.283 400.415 497.497 357.293 576.193 337.662C576.193 337.662 564.809 420.419 516.283 400.415Z" fill="#D89F12"></path><path d="M576.304 337.542L514.888 394.648C512.857 382.309 515.07 352.814 576.304 337.542Z" fill="#F8BA07"></path><path d="M517.465 392.373C517.434 392.373 517.403 392.355 517.381 392.328C517.327 392.275 517.332 392.186 517.39 392.137L576.21 337.444C576.268 337.391 576.353 337.395 576.406 337.453C576.459 337.507 576.455 337.595 576.397 337.649L517.576 392.342C517.545 392.368 517.505 392.382 517.465 392.377V392.373Z" fill="#0E1015"></path><path d="M545.578 366.233C545.511 366.224 545.458 366.171 545.458 366.099C545.458 366.024 545.516 365.962 545.591 365.962L567.901 365.646C567.977 365.642 568.039 365.704 568.039 365.78C568.039 365.855 567.981 365.917 567.906 365.917L545.596 366.233C545.596 366.233 545.582 366.233 545.578 366.233Z" fill="#0E1015"></path><path d="M532.977 377.95C532.977 377.95 532.959 377.95 532.95 377.945C532.879 377.923 532.839 377.843 532.861 377.772L539.748 356.982C539.771 356.911 539.85 356.871 539.922 356.893C539.993 356.915 540.033 356.995 540.006 357.066L533.119 377.857C533.097 377.919 533.034 377.959 532.972 377.95H532.977Z" fill="#0E1015"></path><path d="M529.626 400.477C529.626 400.477 530.23 368.947 583.675 378.981C583.675 378.981 553.602 426.231 529.626 400.477Z" fill="#F8BA07"></path><path d="M583.675 378.985L529.626 400.482C529.626 400.482 548.688 428.524 583.675 378.985Z" fill="#D89F12"></path><path d="M570.305 390.285C570.305 390.285 570.287 390.285 570.282 390.285L556.899 389.28C556.797 389.271 556.721 389.183 556.73 389.085C556.739 388.983 556.828 388.907 556.926 388.916L570.309 389.92C570.411 389.929 570.487 390.018 570.478 390.116C570.469 390.209 570.393 390.28 570.305 390.285Z" fill="#F8BA07"></path><path d="M552.905 401.464C552.905 401.464 552.878 401.464 552.865 401.464L535.376 398.362C535.273 398.345 535.207 398.251 535.225 398.149C535.242 398.051 535.336 397.98 535.438 397.998L552.927 401.1C553.025 401.117 553.096 401.215 553.078 401.313C553.065 401.397 552.989 401.459 552.905 401.464Z" fill="#F8BA07"></path><path d="M113.836 219.078H85.0835V311.842H113.836V219.078Z" fill="#BA9FFE"></path><path d="M183.179 219.078H113.836V311.842H183.179V219.078Z" fill="#8F76F6"></path><path d="M94.6587 230.666C94.6587 228.018 96.8093 225.868 99.4575 225.868C102.106 225.868 104.256 228.018 104.256 230.666C104.256 233.315 102.106 235.465 99.4575 235.465C96.8093 235.465 94.6587 233.315 94.6587 230.666Z" fill="#F5FFFF"></path><path d="M96.0674 230.667C96.0674 228.792 97.587 227.272 99.4621 227.272C101.337 227.272 102.857 228.792 102.857 230.667C102.857 232.542 101.337 234.061 99.4621 234.061C97.587 234.061 96.0674 232.542 96.0674 230.667Z" fill="#705DED"></path><path d="M106.327 242.228H92.8018V266.662H106.327V242.228Z" fill="#F5FFFF"></path><path d="M151.258 219.078H122.505V311.842H151.258V219.078Z" fill="#BA9FFE"></path><path d="M220.498 219.078H151.156V311.842H220.498V219.078Z" fill="#8F76F6"></path><path d="M131.979 230.666C131.979 228.018 134.129 225.868 136.777 225.868C139.426 225.868 141.576 228.018 141.576 230.666C141.576 233.315 139.426 235.465 136.777 235.465C134.129 235.465 131.979 233.315 131.979 230.666Z" fill="#F5FFFF"></path><path d="M133.387 230.667C133.387 228.792 134.907 227.272 136.782 227.272C138.657 227.272 140.177 228.792 140.177 230.667C140.177 232.542 138.657 234.061 136.782 234.061C134.907 234.061 133.387 232.542 133.387 230.667Z" fill="#705DED"></path><path d="M143.647 242.228H130.121V266.662H143.647V242.228Z" fill="#F5FFFF"></path><path d="M190.631 219.078H161.878V311.842H190.631V219.078Z" fill="#BA9FFE"></path><path d="M259.871 219.078H190.528V311.842H259.871V219.078Z" fill="#8F76F6"></path><path d="M171.351 230.667C171.351 228.018 173.502 225.868 176.15 225.868C178.798 225.868 180.949 228.018 180.949 230.667C180.949 233.315 178.803 235.466 176.15 235.466C173.497 235.466 171.351 233.315 171.351 230.667Z" fill="#F5FFFF"></path><path d="M172.755 230.667C172.755 228.792 174.274 227.272 176.15 227.272C178.025 227.272 179.544 228.792 179.544 230.667C179.544 232.542 178.025 234.061 176.15 234.061C174.274 234.061 172.755 232.542 172.755 230.667Z" fill="#705DED"></path><path d="M183.019 242.228H169.494V266.662H183.019V242.228Z" fill="#F5FFFF"></path><path d="M290.597 279.49H128.135V399.522H290.597V279.49Z" fill="#FA7267"></path><path d="M203.538 279.49H74.7261V399.522H203.538V279.49Z" fill="#E33A32"></path><path d="M144.82 291.087H111.45C109.377 291.087 107.696 292.768 107.696 294.842V295.331C107.696 297.404 109.377 299.085 111.45 299.085H144.82C146.893 299.085 148.574 297.404 148.574 295.331V294.842C148.574 292.768 146.893 291.087 144.82 291.087Z" fill="#8F76F6"></path><path d="M567.673 196.168H602.296V77.3048H567.673V196.168Z" fill="#8F76F6"></path><path d="M593.098 170.535C593.098 166.052 589.464 162.421 584.985 162.421C580.506 162.421 576.871 166.056 576.871 170.535C576.871 175.014 580.506 178.648 584.985 178.648C589.464 178.648 593.098 175.014 593.098 170.535Z" fill="#8F76F6"></path><path d="M584.984 179.555C580.034 179.555 576.013 175.529 576.013 170.579C576.013 165.629 580.039 161.604 584.984 161.604C589.93 161.604 593.96 165.629 593.96 170.579C593.96 175.529 589.934 179.555 584.984 179.555ZM584.984 163.328C580.985 163.328 577.728 166.58 577.728 170.584C577.728 174.587 580.981 177.84 584.984 177.84C588.988 177.84 592.24 174.587 592.24 170.584C592.24 166.58 588.988 163.328 584.984 163.328Z" fill="#F5FFFF"></path><g opacity="0.7"><path d="M574.84 149.558H595.115V82.7481H574.84V149.558Z" fill="#F5FFFF"></path></g><path d="M577.222 87.8445H592.334V85.1652H577.222V87.8445Z" fill="#E33A32"></path><path d="M587.575 127.19V142.302H588.913V127.19H587.575Z" fill="#7C9AF2"></path><path d="M587.575 108.248V123.36H588.913V108.248H587.575Z" fill="#7C9AF2"></path><path d="M579.888 127.195V142.306H581.226V127.195H579.888Z" fill="#7C9AF2"></path><path d="M579.888 108.248V123.36H581.226V108.248H579.888Z" fill="#7C9AF2"></path><path d="M583.887 123.307V142.302H585.225V123.307H583.887Z" fill="#7C9AF2"></path><path d="M583.883 99.4859V118.486H585.22V99.4859H583.883Z" fill="#7C9AF2"></path><path d="M528.163 196.168H562.786V77.3048H528.163V196.168Z" fill="#705DED"></path><path d="M553.63 170.713C553.72 166.233 550.161 162.528 545.681 162.439C541.201 162.349 537.496 165.908 537.406 170.388C537.316 174.868 540.875 178.572 545.355 178.662C549.835 178.752 553.54 175.193 553.63 170.713Z" fill="#705DED"></path><path d="M545.474 179.555C540.524 179.555 536.499 175.529 536.499 170.579C536.499 165.629 540.524 161.604 545.474 161.604C550.424 161.604 554.45 165.629 554.45 170.579C554.45 175.529 550.424 179.555 545.474 179.555ZM545.474 163.328C541.475 163.328 538.218 166.58 538.218 170.584C538.218 174.587 541.471 177.84 545.474 177.84C549.477 177.84 552.73 174.587 552.73 170.584C552.73 166.58 549.477 163.328 545.474 163.328Z" fill="#F5FFFF"></path><g opacity="0.7"><path d="M535.334 149.558H555.609V82.7481H535.334V149.558Z" fill="#F5FFFF"></path></g><path d="M537.708 87.8445H552.819V85.1652H537.708V87.8445Z" fill="#E33A32"></path><path d="M548.06 127.19V142.302H549.398V127.19H548.06Z" fill="#7C9AF2"></path><path d="M548.064 108.244V123.356H549.402V108.244H548.064Z" fill="#7C9AF2"></path><path d="M540.377 127.19V142.302H541.715V127.19H540.377Z" fill="#7C9AF2"></path><path d="M540.382 108.244V123.356H541.719V108.244H540.382Z" fill="#7C9AF2"></path><path d="M544.376 123.311V142.307H545.714V123.311H544.376Z" fill="#7C9AF2"></path><path d="M544.376 99.4861V118.486H545.714V99.4861H544.376Z" fill="#7C9AF2"></path><path d="M488.653 196.168H523.276V77.3048H488.653V196.168Z" fill="#8F76F6"></path><path d="M514.119 170.71C514.208 166.23 510.65 162.525 506.17 162.435C501.689 162.345 497.985 165.904 497.895 170.384C497.805 174.864 501.364 178.569 505.844 178.659C510.324 178.749 514.029 175.19 514.119 170.71Z" fill="#6184DB"></path><path d="M505.969 179.555C501.019 179.555 496.994 175.529 496.994 170.579C496.994 165.629 501.019 161.604 505.969 161.604C510.919 161.604 514.945 165.629 514.945 170.579C514.945 175.529 510.919 179.555 505.969 179.555ZM505.969 163.328C501.97 163.328 498.713 166.58 498.713 170.584C498.713 174.587 501.966 177.84 505.969 177.84C509.973 177.84 513.225 174.587 513.225 170.584C513.225 166.58 509.973 163.328 505.969 163.328Z" fill="#F5FFFF"></path><g opacity="0.7"><path d="M495.825 149.558H516.1V82.7481H495.825V149.558Z" fill="#F5FFFF"></path></g><path d="M498.198 87.8445H513.31V85.1652H498.198V87.8445Z" fill="#E33A32"></path><path d="M508.551 127.194V142.306H509.888V127.194H508.551Z" fill="#7C9AF2"></path><path d="M508.555 108.248V123.36H509.893V108.248H508.555Z" fill="#7C9AF2"></path><path d="M500.873 127.19V142.302H502.21V127.19H500.873Z" fill="#7C9AF2"></path><path d="M500.873 108.248V123.36H502.21V108.248H500.873Z" fill="#7C9AF2"></path><path d="M504.867 123.311V142.306H506.209V123.311H504.867Z" fill="#7C9AF2"></path><path d="M504.867 99.4859V118.486H506.209V99.4859H504.867Z" fill="#7C9AF2"></path><path d="M449.148 196.168H483.771V77.3048H449.148V196.168Z" fill="#705DED"></path><path d="M474.573 170.535C474.573 166.052 470.938 162.421 466.459 162.421C461.98 162.421 458.346 166.056 458.346 170.535C458.346 175.014 461.98 178.648 466.459 178.648C470.938 178.648 474.573 175.014 474.573 170.535Z" fill="#6184DB"></path><path d="M466.459 179.555C461.509 179.555 457.483 175.529 457.483 170.579C457.483 165.629 461.509 161.604 466.459 161.604C471.409 161.604 475.43 165.629 475.43 170.579C475.43 175.529 471.404 179.555 466.459 179.555ZM466.459 163.328C462.46 163.328 459.203 166.58 459.203 170.584C459.203 174.587 462.455 177.84 466.459 177.84C470.462 177.84 473.715 174.587 473.715 170.584C473.715 166.58 470.462 163.328 466.459 163.328Z" fill="#F5FFFF"></path><g opacity="0.7"><path d="M456.319 149.558H476.594V82.7481H456.319V149.558Z" fill="#F5FFFF"></path></g><path d="M458.692 87.8445H473.804V85.1652H458.692V87.8445Z" fill="#E33A32"></path><path d="M469.041 127.195V142.306H470.383V127.195H469.041Z" fill="#7C9AF2"></path><path d="M469.045 108.248V123.36H470.387V108.248H469.045Z" fill="#7C9AF2"></path><path d="M461.358 127.195V142.306H462.7V127.195H461.358Z" fill="#7C9AF2"></path><path d="M461.363 108.248V123.36H462.705V108.248H461.363Z" fill="#7C9AF2"></path><path d="M465.357 123.311V142.306H466.695V123.311H465.357Z" fill="#7C9AF2"></path><path d="M465.357 99.4862V118.486H466.695V99.4862H465.357Z" fill="#7C9AF2"></path><path d="M409.637 196.168H444.26V77.3048H409.637V196.168Z" fill="#8F76F6"></path><path d="M435.053 170.713C435.155 166.234 431.606 162.52 427.126 162.418C422.646 162.316 418.932 165.866 418.831 170.345C418.729 174.825 422.278 178.539 426.758 178.641C431.238 178.743 434.952 175.193 435.053 170.713Z" fill="#6184DB"></path><path d="M426.948 179.555C421.998 179.555 417.973 175.529 417.973 170.579C417.973 165.629 421.998 161.604 426.948 161.604C431.898 161.604 435.919 165.629 435.919 170.579C435.919 175.529 431.894 179.555 426.948 179.555ZM426.948 163.328C422.949 163.328 419.692 166.58 419.692 170.584C419.692 174.587 422.945 177.84 426.948 177.84C430.952 177.84 434.204 174.587 434.204 170.584C434.204 166.58 430.952 163.328 426.948 163.328Z" fill="#F5FFFF"></path><g opacity="0.7"><path d="M416.804 149.558H437.079V82.7481H416.804V149.558Z" fill="#F5FFFF"></path></g><path d="M419.182 87.8445H434.293V85.1652H419.182V87.8445Z" fill="#E33A32"></path><path d="M429.53 127.194V142.306H430.872V127.194H429.53Z" fill="#7C9AF2"></path><path d="M429.534 108.248V123.36H430.876V108.248H429.534Z" fill="#7C9AF2"></path><path d="M421.847 127.194V142.306H423.189V127.194H421.847Z" fill="#7C9AF2"></path><path d="M421.852 108.248V123.36H423.193V108.248H421.852Z" fill="#7C9AF2"></path><path d="M425.846 123.307V142.302H427.184V123.307H425.846Z" fill="#7C9AF2"></path><path d="M425.846 99.4859V118.486H427.184V99.4859H425.846Z" fill="#7C9AF2"></path><path d="M370.127 196.168H404.75V77.3048H370.127V196.168Z" fill="#705DED"></path><path d="M395.552 170.535C395.552 166.052 391.917 162.421 387.438 162.421C382.959 162.421 379.325 166.056 379.325 170.535C379.325 175.014 382.959 178.648 387.438 178.648C391.917 178.648 395.552 175.014 395.552 170.535Z" fill="#6184DB"></path><path d="M387.438 179.555C382.488 179.555 378.462 175.529 378.462 170.579C378.462 165.629 382.488 161.604 387.438 161.604C392.388 161.604 396.409 165.629 396.409 170.579C396.409 175.529 392.383 179.555 387.438 179.555ZM387.438 163.328C383.439 163.328 380.182 166.58 380.182 170.584C380.182 174.587 383.434 177.84 387.438 177.84C391.441 177.84 394.694 174.587 394.694 170.584C394.694 166.58 391.441 163.328 387.438 163.328Z" fill="#F5FFFF"></path><g opacity="0.7"><path d="M377.294 149.558H397.569V82.7481H377.294V149.558Z" fill="#F5FFFF"></path></g><path d="M379.676 87.8445H394.788V85.1652H379.676V87.8445Z" fill="#E33A32"></path><path d="M390.024 127.19V142.302H391.361V127.19H390.024Z" fill="#7C9AF2"></path><path d="M390.028 108.244V123.356H391.366V108.244H390.028Z" fill="#7C9AF2"></path><path d="M382.341 127.195V142.307H383.683V127.195H382.341Z" fill="#7C9AF2"></path><path d="M382.346 108.248V123.36H383.688V108.248H382.346Z" fill="#7C9AF2"></path><path d="M386.34 123.307V142.302H387.678V123.307H386.34Z" fill="#7C9AF2"></path><path d="M386.336 99.4861V118.486H387.673V99.4861H386.336Z" fill="#7C9AF2"></path><path d="M528.163 330.531H562.786V211.667H528.163V330.531Z" fill="#8F76F6"></path><path d="M553.592 304.893C553.592 300.409 549.958 296.779 545.479 296.779C541 296.779 537.365 300.414 537.365 304.893C537.365 309.371 541 313.006 545.479 313.006C549.958 313.006 553.592 309.371 553.592 304.893Z" fill="#8F76F6"></path><path d="M545.474 313.912C540.524 313.912 536.499 309.887 536.499 304.941C536.499 299.996 540.524 295.966 545.474 295.966C550.424 295.966 554.45 299.991 554.45 304.941C554.45 309.891 550.424 313.912 545.474 313.912ZM545.474 297.685C541.475 297.685 538.218 300.942 538.218 304.941C538.218 308.94 541.471 312.197 545.474 312.197C549.477 312.197 552.73 308.945 552.73 304.941C552.73 300.938 549.477 297.685 545.474 297.685Z" fill="#F5FFFF"></path><g opacity="0.7"><path d="M535.334 283.92H555.609V217.11H535.334V283.92Z" fill="#F5FFFF"></path></g><path d="M537.708 222.207H552.819V219.527H537.708V222.207Z" fill="#E33A32"></path><path d="M548.064 261.552V276.664H549.402V261.552H548.064Z" fill="#7C9AF2"></path><path d="M548.06 242.606V257.718H549.398V242.606H548.06Z" fill="#7C9AF2"></path><path d="M540.377 261.552V276.664H541.715V261.552H540.377Z" fill="#7C9AF2"></path><path d="M540.377 242.606V257.718H541.715V242.606H540.377Z" fill="#7C9AF2"></path><path d="M544.376 257.669V276.664H545.714V257.669H544.376Z" fill="#7C9AF2"></path><path d="M544.376 233.844V252.843H545.714V233.844H544.376Z" fill="#7C9AF2"></path><path d="M488.653 330.531H523.276V211.667H488.653V330.531Z" fill="#7C9AF2"></path><path d="M514.083 304.893C514.083 300.409 510.448 296.779 505.969 296.779C501.491 296.779 497.856 300.414 497.856 304.893C497.856 309.371 501.491 313.006 505.969 313.006C510.448 313.006 514.083 309.371 514.083 304.893Z" fill="#6184DB"></path><path d="M505.969 313.913C501.019 313.913 496.994 309.887 496.994 304.942C496.994 299.996 501.019 295.966 505.969 295.966C510.919 295.966 514.945 299.992 514.945 304.942C514.945 309.891 510.919 313.913 505.969 313.913ZM505.969 297.686C501.97 297.686 498.713 300.943 498.713 304.942C498.713 308.941 501.966 312.198 505.969 312.198C509.973 312.198 513.225 308.945 513.225 304.942C513.225 300.938 509.973 297.686 505.969 297.686Z" fill="#F5FFFF"></path><g opacity="0.7"><path d="M495.825 283.92H516.1V217.11H495.825V283.92Z" fill="#F5FFFF"></path></g><path d="M498.198 222.207H513.31V219.527H498.198V222.207Z" fill="#FA7267"></path><path d="M508.555 261.553V276.664H509.893V261.553H508.555Z" fill="#7C9AF2"></path><path d="M508.555 242.606V257.718H509.893V242.606H508.555Z" fill="#7C9AF2"></path><path d="M500.873 261.553V276.665H502.21V261.553H500.873Z" fill="#7C9AF2"></path><path d="M500.873 242.606V257.718H502.21V242.606H500.873Z" fill="#7C9AF2"></path><path d="M504.867 257.669V276.665H506.209V257.669H504.867Z" fill="#7C9AF2"></path><path d="M504.867 233.844V252.844H506.209V233.844H504.867Z" fill="#7C9AF2"></path><path d="M449.148 330.531H483.771V211.667H449.148V330.531Z" fill="#7C9AF2"></path><path d="M474.573 304.893C474.573 300.409 470.938 296.779 466.459 296.779C461.98 296.779 458.346 300.414 458.346 304.893C458.346 309.371 461.98 313.006 466.459 313.006C470.938 313.006 474.573 309.371 474.573 304.893Z" fill="#6184DB"></path><path d="M466.459 313.912C461.509 313.912 457.483 309.887 457.483 304.941C457.483 299.996 461.509 295.966 466.459 295.966C471.409 295.966 475.43 299.991 475.43 304.941C475.43 309.891 471.404 313.912 466.459 313.912ZM466.459 297.685C462.46 297.685 459.203 300.942 459.203 304.941C459.203 308.94 462.455 312.197 466.459 312.197C470.462 312.197 473.715 308.945 473.715 304.941C473.715 300.938 470.462 297.685 466.459 297.685Z" fill="#F5FFFF"></path><g opacity="0.7"><path d="M456.319 283.92H476.594V217.11H456.319V283.92Z" fill="#F5FFFF"></path></g><path d="M458.692 222.207H473.804V219.527H458.692V222.207Z" fill="#FA7267"></path><path d="M469.046 261.552V276.664H470.388V261.552H469.046Z" fill="#7C9AF2"></path><path d="M469.046 242.606V257.718H470.388V242.606H469.046Z" fill="#7C9AF2"></path><path d="M461.363 261.552V276.664H462.705V261.552H461.363Z" fill="#7C9AF2"></path><path d="M461.363 242.606V257.718H462.705V242.606H461.363Z" fill="#7C9AF2"></path><path d="M465.362 257.669V276.664H466.7V257.669H465.362Z" fill="#7C9AF2"></path><path d="M465.362 233.848V252.848H466.7V233.848H465.362Z" fill="#7C9AF2"></path><path d="M409.637 330.531H444.26V211.667H409.637V330.531Z" fill="#7C9AF2"></path><path d="M435.062 304.893C435.062 300.409 431.427 296.779 426.948 296.779C422.47 296.779 418.835 300.414 418.835 304.893C418.835 309.371 422.47 313.006 426.948 313.006C431.427 313.006 435.062 309.371 435.062 304.893Z" fill="#6184DB"></path><path d="M426.948 313.913C421.998 313.913 417.973 309.887 417.973 304.942C417.973 299.996 421.998 295.966 426.948 295.966C431.898 295.966 435.919 299.992 435.919 304.942C435.919 309.891 431.894 313.913 426.948 313.913ZM426.948 297.686C422.949 297.686 419.692 300.943 419.692 304.942C419.692 308.941 422.945 312.198 426.948 312.198C430.952 312.198 434.204 308.945 434.204 304.942C434.204 300.938 430.952 297.686 426.948 297.686Z" fill="#F5FFFF"></path><g opacity="0.7"><path d="M416.804 283.92H437.079V217.11H416.804V283.92Z" fill="#F5FFFF"></path></g><path d="M419.182 222.207H434.293V219.527H419.182V222.207Z" fill="#FA7267"></path><path d="M429.535 261.553V276.664H430.877V261.553H429.535Z" fill="#7C9AF2"></path><path d="M429.535 242.606V257.718H430.877V242.606H429.535Z" fill="#7C9AF2"></path><path d="M421.852 261.552V276.664H423.194V261.552H421.852Z" fill="#7C9AF2"></path><path d="M421.852 242.606V257.718H423.194V242.606H421.852Z" fill="#7C9AF2"></path><path d="M425.851 257.669V276.664H427.189V257.669H425.851Z" fill="#7C9AF2"></path><path d="M425.851 233.844V252.844H427.189V233.844H425.851Z" fill="#7C9AF2"></path><path d="M370.127 330.531H404.75V211.667H370.127V330.531Z" fill="#7C9AF2"></path><path d="M395.552 304.893C395.552 300.409 391.917 296.779 387.438 296.779C382.959 296.779 379.325 300.414 379.325 304.893C379.325 309.371 382.959 313.006 387.438 313.006C391.917 313.006 395.552 309.371 395.552 304.893Z" fill="#6184DB"></path><path d="M387.438 313.912C382.488 313.912 378.462 309.887 378.462 304.941C378.462 299.996 382.488 295.966 387.438 295.966C392.388 295.966 396.409 299.991 396.409 304.941C396.409 309.891 392.383 313.912 387.438 313.912ZM387.438 297.685C383.439 297.685 380.182 300.942 380.182 304.941C380.182 308.94 383.434 312.197 387.438 312.197C391.441 312.197 394.694 308.945 394.694 304.941C394.694 300.938 391.441 297.685 387.438 297.685Z" fill="#F5FFFF"></path><g opacity="0.7"><path d="M377.294 283.92H397.569V217.11H377.294V283.92Z" fill="#F5FFFF"></path></g><path d="M379.676 222.207H394.788V219.527H379.676V222.207Z" fill="#FA7267"></path><path d="M390.024 261.548V276.66H391.361V261.548H390.024Z" fill="#7C9AF2"></path><path d="M390.024 242.602V257.713H391.361V242.602H390.024Z" fill="#7C9AF2"></path><path d="M382.341 261.553V276.664H383.683V261.553H382.341Z" fill="#7C9AF2"></path><path d="M382.341 242.606V257.718H383.683V242.606H382.341Z" fill="#7C9AF2"></path><path d="M386.34 257.669V276.664H387.678V257.669H386.34Z" fill="#7C9AF2"></path><path d="M386.34 233.844V252.844H387.678V233.844H386.34Z" fill="#7C9AF2"></path><path d="M361.81 403.152H370.132L370.132 59.1405H361.81L361.81 403.152Z" fill="#6BB8E4"></path><path d="M602.306 391.511H610.628V59.1405H602.306V391.511Z" fill="#6BB8E4"></path><path d="M361.806 197.822L602.297 197.822V194.48L361.806 194.48V197.822Z" fill="#6BB8E4"></path><path d="M361.81 332.201L617.23 332.201V328.86L361.81 328.86V332.201Z" fill="#6BB8E4"></path><path d="M522.61 160.662H206.089C201.324 160.662 197.46 164.525 197.46 169.291V400.242C197.46 405.008 201.324 408.871 206.089 408.871H522.61C527.376 408.871 531.239 405.008 531.239 400.242V169.291C531.239 164.525 527.376 160.662 522.61 160.662Z" fill="#0E1015"></path><path d="M523.708 169.335H204.987V406.347H523.708V169.335Z" fill="#F5FFFF"></path><path d="M564.2 399.224H164.495V415.114H564.2V399.224Z" fill="#232830"></path><path d="M523.708 169.335H204.987V399.224H523.708V169.335Z" fill="#BA9FFE"></path><path d="M447.86 209.818L437.298 194.231L436.801 193.494L436.156 193.329L383.396 179.826L358.7 276.331L427.096 293.833L448.224 211.28L448.398 210.605L447.86 209.818Z" fill="#8F76F6"></path><path d="M411.94 204.229L411.851 204.922L400.831 289.416L330.822 280.285L343.708 181.51L397.708 188.557L398.365 188.642L398.952 189.313L411.313 203.509L411.94 204.229Z" fill="#F5FFFF"></path><path d="M411.94 204.229L411.847 204.922L396.504 202.922C396.14 202.874 395.882 202.54 395.931 202.176L397.708 188.557L398.366 188.642L398.948 189.312L397.33 201.687L411.309 203.509L411.936 204.229H411.94Z" fill="#F5FFFF"></path><path d="M390.652 201.336L361.45 197.528C361.086 197.479 360.828 197.146 360.877 196.782C360.926 196.417 361.259 196.16 361.624 196.209L390.825 200.017C391.189 200.065 391.447 200.399 391.398 200.763C391.349 201.127 391.016 201.385 390.652 201.336Z" fill="#7C9AF2"></path><path d="M404.782 216.141L345.792 208.45C345.428 208.401 345.17 208.068 345.219 207.703C345.268 207.339 345.601 207.081 345.965 207.13L404.955 214.822C405.319 214.871 405.577 215.204 405.528 215.568C405.479 215.932 405.146 216.19 404.782 216.141Z" fill="#7C9AF2"></path><path d="M404.204 220.58L345.214 212.889C344.85 212.84 344.592 212.507 344.641 212.142C344.69 211.778 345.023 211.52 345.388 211.569L404.377 219.261C404.742 219.309 404.999 219.643 404.951 220.007C404.902 220.371 404.568 220.629 404.204 220.58Z" fill="#7C9AF2"></path><path d="M403.377 226.921L344.388 219.229C344.023 219.181 343.766 218.847 343.815 218.483C343.863 218.119 344.197 217.861 344.561 217.91L403.551 225.601C403.915 225.65 404.173 225.983 404.124 226.348C404.075 226.712 403.742 226.97 403.377 226.921Z" fill="#7C9AF2"></path><path d="M402.796 231.364L343.806 223.673C343.442 223.624 343.184 223.291 343.233 222.926C343.282 222.562 343.615 222.304 343.979 222.353L402.969 230.045C403.334 230.093 403.591 230.427 403.542 230.791C403.493 231.155 403.16 231.413 402.796 231.364Z" fill="#7C9AF2"></path><path d="M402.218 235.808L343.228 228.116C342.864 228.067 342.606 227.734 342.655 227.37C342.704 227.005 343.037 226.748 343.401 226.796L402.391 234.488C402.755 234.537 403.013 234.87 402.964 235.234C402.915 235.599 402.582 235.856 402.218 235.808Z" fill="#7C9AF2"></path><path d="M401.64 240.247L342.65 232.555C342.286 232.506 342.028 232.173 342.077 231.809C342.126 231.444 342.459 231.187 342.824 231.235L401.813 238.927C402.178 238.976 402.435 239.309 402.387 239.673C402.338 240.038 402.004 240.295 401.64 240.247Z" fill="#7C9AF2"></path><path d="M399.44 257.096L340.451 249.404C340.086 249.355 339.829 249.022 339.878 248.658C339.926 248.293 340.26 248.036 340.624 248.085L399.614 255.776C399.978 255.825 400.236 256.158 400.187 256.522C400.138 256.887 399.805 257.145 399.44 257.096Z" fill="#7C9AF2"></path><path d="M398.863 261.534L339.874 253.843C339.509 253.794 339.252 253.461 339.3 253.096C339.349 252.732 339.683 252.474 340.047 252.523L399.037 260.215C399.401 260.264 399.659 260.597 399.61 260.961C399.561 261.326 399.228 261.583 398.863 261.534Z" fill="#7C9AF2"></path><path d="M398.281 265.978L339.292 258.286C338.927 258.237 338.669 257.904 338.718 257.54C338.767 257.175 339.1 256.918 339.465 256.967L398.455 264.658C398.819 264.707 399.077 265.04 399.028 265.405C398.979 265.769 398.646 266.027 398.281 265.978Z" fill="#7C9AF2"></path><path d="M397.704 270.421L338.714 262.73C338.35 262.681 338.092 262.348 338.141 261.983C338.19 261.619 338.523 261.361 338.887 261.41L397.877 269.101C398.241 269.15 398.499 269.484 398.45 269.848C398.401 270.212 398.068 270.47 397.704 270.421Z" fill="#7C9AF2"></path><path d="M369.786 200.572L252.029 210.045C251.789 210.063 251.611 210.272 251.634 210.512L264.035 364.713C264.053 364.949 264.262 365.126 264.502 365.109L382.09 355.649C382.33 355.631 382.508 355.422 382.485 355.182L370.071 200.812C370.057 200.665 369.933 200.559 369.786 200.572Z" fill="#232830"></path><path d="M365.887 204.164L255.324 213.837L268.127 360.179L378.691 350.506L365.887 204.164Z" fill="#F5FFFF"></path><path d="M330.796 227.774L268.061 233.261C268.03 233.261 268.003 233.239 267.999 233.208L267.861 231.64C267.861 231.608 267.883 231.577 267.914 231.577L330.65 226.09C330.681 226.09 330.712 226.112 330.712 226.143L330.85 227.712C330.85 227.743 330.827 227.774 330.796 227.774Z" fill="#F5FFFF"></path><path d="M331.974 241.242L269.239 246.729C269.207 246.729 269.176 246.707 269.176 246.676L269.039 245.107C269.039 245.076 269.061 245.045 269.092 245.045L331.827 239.558C331.858 239.558 331.89 239.58 331.89 239.611L332.027 241.179C332.027 241.211 332.005 241.237 331.974 241.242Z" fill="#F5FFFF"></path><path d="M355.354 232.413L268.652 239.998C268.621 239.998 268.589 239.975 268.589 239.944L268.452 238.376C268.452 238.345 268.474 238.314 268.505 238.314L355.208 230.729C355.239 230.729 355.27 230.751 355.27 230.782L355.408 232.351C355.408 232.382 355.385 232.413 355.354 232.413Z" fill="#F5FFFF"></path><path d="M317.844 284.502L275.161 288.234C275.135 288.234 275.112 288.217 275.108 288.19L274.97 286.604C274.97 286.577 274.988 286.555 275.015 286.55L317.697 282.818C317.724 282.818 317.746 282.836 317.751 282.862L317.888 284.449C317.888 284.475 317.871 284.497 317.844 284.502Z" fill="#F5FFFF"></path><path d="M333.569 276.34L274.57 281.503C274.543 281.503 274.521 281.485 274.517 281.458L274.379 279.872C274.379 279.845 274.397 279.823 274.423 279.819L333.422 274.656C333.449 274.656 333.471 274.673 333.475 274.7L333.613 276.286C333.613 276.313 333.595 276.335 333.569 276.34Z" fill="#F5FFFF"></path><path d="M338.27 290.269L275.534 295.757C275.503 295.757 275.472 295.735 275.472 295.704L275.334 294.135C275.334 294.104 275.357 294.073 275.388 294.073L338.123 288.585C338.154 288.585 338.185 288.608 338.185 288.639L338.323 290.207C338.323 290.238 338.301 290.269 338.27 290.269Z" fill="#F5FFFF"></path><path d="M345.877 296.388L276.116 302.489C276.09 302.489 276.063 302.471 276.059 302.44L275.921 300.858C275.921 300.831 275.939 300.805 275.97 300.8L345.73 294.699C345.757 294.699 345.783 294.717 345.788 294.748L345.926 296.33C345.926 296.357 345.908 296.384 345.877 296.388Z" fill="#F5FFFF"></path><path d="M322.429 310.358L277.534 314.286C277.507 314.286 277.485 314.268 277.481 314.241L277.343 312.655C277.343 312.628 277.361 312.606 277.387 312.602L322.283 308.674C322.309 308.674 322.336 308.691 322.336 308.718L322.474 310.304C322.474 310.331 322.456 310.358 322.429 310.358Z" fill="#F5FFFF"></path><path d="M323.607 323.825L278.712 327.753C278.685 327.753 278.658 327.736 278.658 327.709L278.521 326.123C278.521 326.096 278.538 326.074 278.565 326.069L323.46 322.141C323.487 322.141 323.509 322.159 323.514 322.186L323.651 323.772C323.651 323.799 323.634 323.825 323.607 323.825Z" fill="#F5FFFF"></path><path d="M340.176 315.592L278.12 321.022C278.094 321.022 278.071 321.004 278.067 320.977L277.929 319.391C277.929 319.364 277.947 319.342 277.974 319.338L340.029 313.908C340.056 313.908 340.083 313.926 340.083 313.952L340.22 315.539C340.22 315.565 340.203 315.588 340.176 315.592Z" fill="#F5FFFF"></path><path d="M335.537 198.795L317.897 200.212C317.897 199.972 317.897 199.732 317.875 199.492C317.524 195.133 313.703 191.881 309.344 192.232C304.98 192.583 301.732 196.404 302.083 200.763C302.101 201.007 302.137 201.243 302.177 201.478L284.537 202.896C281.173 203.167 278.667 206.113 278.938 209.472L279.605 217.772C279.667 218.55 280.347 219.127 281.124 219.065L341.482 214.208C342.26 214.146 342.838 213.466 342.775 212.689L342.109 204.389C341.838 201.025 338.892 198.519 335.533 198.79L335.537 198.795ZM310.383 205.153C307.606 205.375 305.176 203.309 304.954 200.532C304.732 197.755 306.798 195.324 309.575 195.102C312.352 194.88 314.782 196.946 315.005 199.723C315.227 202.5 313.161 204.931 310.383 205.153Z" fill="#F8BA07"></path><path d="M377.971 286.288L379.552 282.374C381.245 278.179 385.32 275.429 389.843 275.429H418.996V372.893H298.408V293.926H366.649C371.63 293.926 376.109 290.905 377.975 286.284L377.971 286.288Z" fill="#E33A32"></path><path d="M465.077 317.911C465.077 317.911 457.15 327.407 450.69 326.367C444.229 325.327 433.716 324.305 433.716 324.305L439.039 320.795C439.039 320.795 448.308 318.356 451.707 317.676C455.111 316.996 459.332 312.171 459.332 312.171L465.077 317.916V317.911Z" fill="#F9A58F"></path><path d="M471.041 418.109C471.041 418.109 472.009 427.671 470.059 428.755C466.522 430.719 460.003 432.594 460.55 434.278C461.096 435.962 476.724 436.029 477.159 434.491C477.595 432.954 475.844 428.248 477.697 419.086L471.041 418.109Z" fill="#F9A58F"></path><path d="M500.353 417.833C500.353 417.833 502.935 427.089 501.198 428.493C498.047 431.03 491.942 433.985 492.769 435.558C493.595 437.126 509.004 434.531 509.169 432.94C509.333 431.35 506.809 427.013 507.076 417.669L500.353 417.838V417.833Z" fill="#F9A58F"></path><path d="M472.862 333.348C472.862 333.348 468.619 338.489 466.704 344.509C464.788 350.53 469.867 421.841 469.867 421.841H478.35C478.35 421.841 482.851 358.333 482.851 357.773C482.851 355.555 499.553 421.841 499.553 421.841H508.022C508.022 421.841 503.441 344.225 492.804 333.348L482.851 333.961L472.866 333.348H472.862Z" fill="#F5FFFF"></path><path d="M462.763 307.092C462.816 307.465 462.794 307.843 462.661 308.229C462.496 308.705 462.163 309.114 462.03 309.602C461.737 310.673 462.536 311.824 463.576 312.215C464.447 312.544 465.42 312.442 466.313 312.148C466.482 312.091 466.651 312.028 466.815 311.962C467.837 311.535 468.77 310.909 469.779 310.451C470.041 310.331 470.308 310.224 470.579 310.127C470.637 310.105 470.694 310.087 470.748 310.065C472.756 309.371 474.933 309.198 477.031 308.785C479.505 308.296 481.967 307.461 484.486 307.634C487.392 307.838 490.01 309.358 492.729 310.398C495.501 311.455 498.456 312.033 501.424 312.086C502.633 312.108 503.873 312.037 505.01 311.664C505.095 311.637 505.179 311.606 505.263 311.575C505.495 311.491 505.721 311.389 505.943 311.273C508.685 309.847 509.742 306.288 508.645 303.484C508.018 301.884 506.77 300.574 505.281 299.743C503.953 299.001 502.255 298.752 501.251 297.508C500.856 297.019 500.642 296.463 500.522 295.868C500.216 294.34 500.554 292.558 500.154 290.994C499.687 289.172 498.154 287.67 496.457 286.946C495.728 286.635 494.919 286.444 494.142 286.199C493.76 286.079 493.391 285.942 493.035 285.773C492.542 285.533 492.089 285.222 491.711 284.782C490.418 283.267 490.849 281.17 490.614 279.348C490.481 278.29 490.112 277.282 489.578 276.362C489.014 275.398 488.263 274.531 487.392 273.816C487.055 273.536 486.699 273.283 486.33 273.052C485.917 272.794 485.486 272.563 485.033 272.358C484.757 272.23 484.478 272.118 484.189 272.012C482.86 271.523 481.429 271.256 480.008 271.23C478.666 271.208 477.333 271.399 476.106 271.834C474.907 272.256 473.809 272.909 472.907 273.811C472.032 274.687 471.347 275.793 470.93 277.157C470.392 278.908 470.432 280.863 469.472 282.427C468.433 284.124 466.34 285.129 465.762 287.03C465.038 289.425 467.086 291.993 466.411 294.397C465.971 295.97 464.5 296.988 463.198 297.979C461.897 298.969 460.568 300.285 460.612 301.92C460.666 303.782 462.514 305.39 462.763 307.092Z" fill="#4D1F45"></path><path d="M485.032 297.463C489.911 297.645 498.638 299.827 501.397 305.319C502.921 308.358 505.072 318.24 505.072 318.24L497.669 319.538C497.669 319.538 497.794 323.115 497.309 325.158C496.452 328.784 493.008 337.013 491.275 337.706C488.565 338.791 485.961 337.564 484.335 337.386C482.709 337.204 479.078 335.16 474.737 333.894C470.401 332.628 470.218 329.375 469.676 325.581C469.134 321.786 468.41 318.351 468.41 318.351L466.784 319.618L458.648 311.482C458.648 311.482 468.232 301.182 473.653 299.556C479.074 297.93 485.032 297.463 485.032 297.463Z" fill="#E33A32"></path><path d="M471.991 285.235C471.991 285.235 471.178 284.338 470.721 284.822C469.548 286.057 471.196 287.212 472.129 287.372L471.996 285.235H471.991Z" fill="#E58876"></path><path d="M478.528 271.865C482.638 271.514 486.428 274.345 487.263 278.388C487.539 279.717 487.472 281.027 487.139 282.24C486.45 285.24 485.868 287.661 484.966 289.496C484.055 291.354 483.828 293.478 484.428 295.459L485.033 297.463C480.665 300.547 478.239 298.494 478.239 298.494L477.519 293.767C472.311 293.931 471.56 284.391 471.138 281.605H471.147C471.129 281.503 471.107 281.396 471.089 281.294C470.378 276.624 473.746 272.279 478.528 271.87V271.865Z" fill="#F9A58F"></path><path d="M480.367 280.045C481.518 280.907 482.553 281.907 483.588 282.902C484.681 283.955 485.819 285.08 486.25 286.537C487.414 285.333 488.032 283.711 488.516 282.107C488.743 281.365 488.943 280.601 488.938 279.823C488.929 278.721 488.498 277.677 488.076 276.659C487.53 275.349 486.947 273.985 485.859 273.074C485.139 272.469 484.246 272.109 483.344 271.843C481.238 271.23 478.958 271.11 476.857 271.736C474.755 272.363 472.853 273.771 471.836 275.717C470.529 278.219 470.796 281.223 471.098 284.031C471.205 282.831 471.822 281.743 472.427 280.703C472.818 280.023 473.222 279.334 473.817 278.819C474.83 277.948 475.168 278.05 476.928 276.424C477.701 278.068 478.936 278.966 480.371 280.041L480.367 280.045Z" fill="#4D1F45"></path><path d="M485.006 284.893C485.099 284.609 485.295 284.373 485.552 284.222C486.081 283.911 487.032 283.511 487.814 284.089C488.965 284.933 487.356 287.888 485.175 286.87C485.175 286.87 484.522 286.391 485.006 284.889V284.893Z" fill="#F9A58F"></path><path d="M473.347 285.106C473.249 284.724 473.485 284.333 473.867 284.236C474.249 284.138 474.64 284.373 474.738 284.755C474.835 285.138 474.6 285.529 474.218 285.626C473.836 285.724 473.445 285.489 473.347 285.106Z" fill="#0E1015"></path><path d="M480.154 284.84C480.056 284.458 480.292 284.067 480.674 283.969C481.056 283.871 481.447 284.107 481.545 284.489C481.642 284.871 481.407 285.262 481.025 285.36C480.643 285.457 480.252 285.222 480.154 284.84Z" fill="#0E1015"></path><path d="M475.67 289.998C475.67 289.998 476.235 289.496 476.608 289.563C476.981 289.63 477.226 290.052 477.226 290.052C477.226 290.052 477.403 289.59 477.843 289.541C478.288 289.492 479.563 289.714 479.563 289.714C479.563 289.714 478.594 291.714 477.235 291.509C475.875 291.305 475.693 290.065 475.693 290.065L475.666 290.003L475.67 289.998Z" fill="#EA6868"></path><path d="M476.99 290.652C478.541 290.829 479.914 289.563 479.931 289.55C479.971 289.51 479.976 289.448 479.936 289.408C479.896 289.368 479.834 289.363 479.794 289.403C479.705 289.488 477.563 291.456 475.67 289.852C475.626 289.816 475.564 289.821 475.528 289.865C475.493 289.91 475.497 289.972 475.541 290.007C476.021 290.412 476.515 290.603 476.99 290.656V290.652Z" fill="#0E1015"></path><path d="M482.331 283.471C482.415 283.453 482.491 283.4 482.535 283.32C482.615 283.174 482.558 282.996 482.415 282.916C482.371 282.894 481.327 282.351 480.034 282.68C479.874 282.72 479.776 282.885 479.816 283.045C479.856 283.205 480.034 283.302 480.176 283.262C481.256 282.991 482.122 283.44 482.131 283.445C482.193 283.48 482.264 283.489 482.331 283.476V283.471Z" fill="#0E1015"></path><path d="M474.929 283.338C475.009 283.307 475.071 283.24 475.102 283.151C475.151 282.996 475.066 282.827 474.911 282.778C474.862 282.765 473.751 282.414 472.525 282.974C472.374 283.04 472.307 283.218 472.378 283.369C472.445 283.52 472.627 283.582 472.774 283.516C473.787 283.054 474.72 283.342 474.729 283.347C474.8 283.369 474.871 283.365 474.933 283.338H474.929Z" fill="#0E1015"></path><path d="M477.372 288.026C476.515 288.026 476.141 287.439 476.057 287.079C476.044 287.017 476.057 286.95 476.088 286.897C476.701 285.866 476.421 284.533 476.417 284.52C476.386 284.386 476.475 284.249 476.608 284.222C476.741 284.191 476.879 284.28 476.906 284.413C476.919 284.475 477.217 285.866 476.577 287.052C476.657 287.239 476.923 287.648 477.714 287.488C477.852 287.461 477.981 287.55 478.012 287.683C478.039 287.821 477.95 287.95 477.816 287.981C477.656 288.012 477.51 288.03 477.372 288.03V288.026Z" fill="#E58876"></path><path d="M488.343 320.795C485.281 320.795 482.691 319.027 482.655 319.004C482.629 318.987 482.62 318.947 482.638 318.916C482.66 318.889 482.695 318.88 482.727 318.902C482.775 318.938 487.685 322.279 491.938 319.684C491.969 319.667 492.004 319.675 492.022 319.706C492.04 319.738 492.031 319.773 492 319.791C490.791 320.529 489.529 320.795 488.338 320.795H488.343Z" fill="#0E1015"></path><path d="M504.068 318.418C504.148 318.862 506.716 333.081 504.726 336.431C503.85 337.902 496.497 340.492 485.784 340.426L486.459 336.693C486.459 336.693 496.883 333.094 497.207 331.775C497.896 328.931 495.937 319.844 495.937 319.844L504.072 318.418H504.068Z" fill="#F9A58F"></path><path d="M464.469 313.975H426.341V319.955H464.469V313.975Z" fill="#F5FFFF"></path><path d="M462.141 314.735L462.852 312.975C463.616 311.087 465.447 309.851 467.482 309.851H480.598V353.703H426.341V318.174H457.044C459.284 318.174 461.301 316.814 462.141 314.735Z" fill="#F8BA07"></path><path d="M479.385 331.904C478.785 332.486 480.549 334.583 480.589 334.632C480.545 334.632 477.612 334.667 476.706 334.538C475.79 334.41 474.098 334.596 473.951 335.258C473.804 335.907 478.092 336.218 478.234 336.231C478.105 336.231 474.475 336.347 474.213 336.92C473.951 337.493 478.612 338.053 478.75 338.071C478.656 338.071 475.884 338.013 474.813 338.151C474.609 338.178 474.466 338.213 474.417 338.253C474.098 338.52 474.426 338.942 475.844 339.319C476.248 339.426 476.661 339.502 477.043 339.559C477.945 339.693 478.696 339.71 478.79 339.71C478.714 339.71 478.19 339.742 477.586 339.786C476.772 339.844 475.822 339.924 475.639 339.999C475.306 340.137 474.946 340.568 477.101 340.901C478.83 341.168 482.251 341.195 484.762 340.684C485.379 340.559 485.939 340.399 486.406 340.208L486.437 337.871L486.454 336.698C486.454 336.698 486.117 336.422 485.61 336.031C484.606 335.249 482.949 334.001 482.078 333.565C480.771 332.917 479.985 331.313 479.376 331.904H479.385Z" fill="#F9A58F"></path><path d="M440.773 313.179C440.773 313.179 439.591 317.281 438.96 317.214C438.324 317.143 438.466 313.788 438.444 313.841C438.422 313.89 437.653 317.378 436.774 317.56C435.894 317.743 436.245 313.886 436.245 313.886C436.245 313.886 435.778 317.201 435.17 317.294C434.561 317.387 434.636 314.179 434.396 314.175C434.161 314.17 434.321 316.925 433.57 317.076C432.819 317.223 432.432 313.348 433.121 312.846C433.81 312.344 434.481 312.868 434.481 312.868C434.481 312.868 435.729 312.144 436.396 312.54C436.396 312.54 438.355 312.171 438.675 312.935C438.675 312.935 440.115 311.989 440.768 313.188L440.773 313.179Z" fill="#F9A58F"></path><path d="M480.598 334.632L477.479 334.489V327.167H480.598V334.632Z" fill="#D89F12"></path><path d="M224.387 329.078L217.015 327.171L221.814 323.586L225.884 322.737L227.866 325.092L224.387 329.078Z" fill="#F9A58F"></path><path d="M192.808 421.023C192.808 421.023 194.634 431.71 194.705 431.838C194.776 431.972 194.039 433.114 194.039 433.114L191.155 433.629L188.525 432.421C188.525 432.421 187.005 423.805 186.729 422.468C186.454 421.126 192.808 421.023 192.808 421.023Z" fill="#F9A58F"></path><path d="M159.945 421.023C159.945 421.023 157.124 431.71 157.195 431.839C157.266 431.972 156.528 433.114 156.528 433.114L153.645 433.629L151.014 432.421C151.014 432.421 152.449 423.632 152.174 422.29C151.898 420.948 159.945 421.023 159.945 421.023Z" fill="#F9A58F"></path><path d="M189.835 354.231L195.616 427.36H185.681C185.681 427.36 175.177 369.574 173.684 369.321C172.195 369.068 161.549 427.36 161.549 427.36H150.143L155.973 352.338L189.835 354.231Z" fill="#F8BA07"></path><path d="M167.41 297.25C167.41 297.25 179.709 297.677 184.69 301.462C187.787 303.813 188.494 333.494 188.494 333.494L190.355 355.631C190.355 355.631 170.418 362.385 154.196 355.631L152.432 340.826C152.432 340.826 146.024 303.617 151.01 301.422C160.479 297.25 167.41 297.25 167.41 297.25Z" fill="#F5FFFF"></path><path d="M175.594 282.827C175.594 282.827 176.19 281.72 176.776 282.094C178.269 283.049 177.003 284.573 176.101 284.964L175.594 282.827Z" fill="#D36857"></path><path d="M175.55 278.948H175.541C175.536 278.841 175.527 278.73 175.519 278.619C175.074 273.727 170.586 270.172 165.654 270.95C161.544 271.598 158.461 275.198 158.452 279.357C158.452 280.903 158.852 282.334 159.54 283.569C160.509 285.488 161.362 287.128 162.224 288.479C163.655 290.709 164.281 293.362 164.081 296.006L163.975 297.57C169.462 299.88 171.559 297.583 171.559 297.583L171.315 293.815C171.284 293.322 171.635 292.895 172.119 292.815C172.119 292.815 172.124 292.815 172.128 292.815C178.58 291.802 175.812 281.863 175.545 278.943L175.55 278.948Z" fill="#F9A58F"></path><path d="M167.187 284.218C167.147 283.778 166.761 283.458 166.321 283.498C165.881 283.538 165.561 283.924 165.601 284.364C165.641 284.804 166.028 285.124 166.467 285.084C166.907 285.044 167.227 284.657 167.187 284.218Z" fill="#0E1015"></path><path d="M174.101 282.165C174.061 281.729 173.674 281.405 173.234 281.445C172.795 281.485 172.475 281.872 172.515 282.311C172.555 282.747 172.941 283.071 173.381 283.031C173.821 282.991 174.141 282.605 174.101 282.165Z" fill="#0E1015"></path><path d="M164.233 283.24C164.153 283.249 164.068 283.236 163.988 283.196C163.757 283.084 163.659 282.804 163.77 282.573C164.108 281.876 165.237 280.743 167.09 281.467C167.33 281.56 167.45 281.831 167.356 282.071C167.263 282.311 166.992 282.431 166.752 282.338C165.228 281.743 164.637 282.929 164.61 282.978C164.535 283.129 164.388 283.227 164.233 283.24Z" fill="#0E1015"></path><path d="M171.55 281.321C171.47 281.329 171.386 281.316 171.306 281.276C171.075 281.165 170.977 280.885 171.088 280.654C171.426 279.956 172.555 278.823 174.408 279.548C174.647 279.641 174.767 279.912 174.674 280.152C174.581 280.392 174.31 280.512 174.07 280.419C172.546 279.823 171.955 281.009 171.928 281.058C171.853 281.209 171.706 281.307 171.55 281.321Z" fill="#0E1015"></path><path d="M157.781 280.827L160.616 286.377L162.14 285.928L162.388 278.41L157.781 280.827Z" fill="#4D1F45"></path><path d="M162.362 285.719C162.198 285.457 161.94 285.266 161.642 285.177C161.033 284.995 159.971 284.831 159.323 285.608C158.372 286.75 160.727 289.332 162.682 287.763C162.682 287.763 163.22 287.115 162.358 285.719H162.362Z" fill="#F9A58F"></path><path d="M171.519 286.715C170.791 287.155 170.08 286.808 170.071 286.804C170.004 286.768 169.977 286.688 170.009 286.617C170.044 286.55 170.124 286.519 170.195 286.555C170.231 286.572 171.022 286.95 171.715 286.195C171.826 286.07 171.884 285.973 171.879 285.906C171.875 285.813 171.75 285.697 171.577 285.546C171.182 285.191 170.52 284.595 170.195 283.142C170.177 283.067 170.226 282.991 170.302 282.978C170.377 282.96 170.448 283.009 170.466 283.084C170.768 284.449 171.368 284.986 171.764 285.342C171.977 285.533 172.146 285.684 172.155 285.897C172.164 286.048 172.088 286.199 171.915 286.386C171.786 286.528 171.648 286.639 171.515 286.719L171.519 286.715Z" fill="#D36857"></path><path d="M168.454 288.452C168.454 288.452 171.724 288.554 173.683 287.412C173.683 287.412 173.403 289.945 171.542 290.314C169.68 290.683 168.454 288.448 168.454 288.448V288.452Z" fill="#F5FFFF"></path><path d="M173.879 275.766C173.879 275.766 175.181 276.513 175.954 281.654C175.954 281.654 175.843 275.855 175.145 275.278C174.448 274.7 173.879 275.762 173.879 275.762V275.766Z" fill="#4D1F45"></path><path d="M160.003 270.141C161.704 268.235 164.828 268.404 166.85 266.84C166.21 268.151 165.326 269.337 164.255 270.323C167.254 269.457 170.249 268.586 173.248 267.72C172.324 268.657 171.306 269.506 170.218 270.248C172.555 270.448 174.906 270.434 177.238 270.203C177.469 270.563 177.314 271.034 177.154 271.43C176.279 273.598 175.199 275.984 173.026 276.86C172.355 277.131 171.622 277.233 170.898 277.273C168.027 277.428 164.859 276.726 162.486 278.344C161.384 279.095 160.02 281.698 158.456 281.325C157.061 280.992 154.733 276.046 160.003 270.141Z" fill="#4D1F45"></path><path d="M180.495 299.418C188.173 301.182 196.256 316.814 200.09 319.311C204.032 321.88 221.201 323.004 221.201 323.004L217.482 328.811C217.482 328.811 199.046 330.846 193.674 329.051C190.36 327.94 184.885 323.484 183.255 321.142C176.025 310.785 180.495 299.418 180.495 299.418Z" fill="#F5FFFF"></path><path d="M241.558 318.935L239.71 314.636L144.072 355.745L145.92 360.043L241.558 318.935Z" fill="#705DED"></path><path d="M146.055 360.488L143.909 355.356L181.198 339.324L183.339 344.456L146.055 360.488Z" fill="#4D1F45"></path><g opacity="0.3"><path d="M263.955 258.318C286.541 248.604 312.721 259.042 322.434 281.627C332.143 304.213 321.71 330.393 299.124 340.102C276.539 349.81 250.359 339.377 240.646 316.792C230.937 294.206 241.374 268.026 263.955 258.318Z" fill="#7C9AF2"></path></g><path d="M238.481 317.72C248.687 341.457 276.307 352.472 300.048 342.261C323.788 332.055 334.799 304.435 324.588 280.694C314.382 256.958 286.762 245.943 263.021 256.154C239.281 266.36 228.27 293.98 238.481 317.72ZM264.421 259.406C286.402 249.955 311.885 260.113 321.336 282.094C330.787 304.075 320.629 329.557 298.648 339.008C276.667 348.459 251.184 338.302 241.733 316.321C232.282 294.34 242.44 268.857 264.421 259.406Z" fill="#705DED"></path><path d="M224.387 329.077C224.387 329.077 222.129 324.354 222.752 323.954C223.374 323.554 225.955 326.811 225.937 326.745C225.915 326.682 223.787 322.843 224.427 322.026C225.066 321.208 227.866 325.087 227.866 325.087C227.866 325.087 225.609 321.635 226.075 321.097C226.542 320.56 229.065 323.63 229.283 323.461C229.501 323.292 227.133 320.822 227.684 320.129C228.235 319.44 231.709 322.795 231.5 323.772C231.292 324.75 230.27 324.754 230.27 324.754C230.27 324.754 229.741 326.354 228.826 326.469C228.826 326.469 227.368 328.255 226.466 327.771C226.466 327.771 225.942 329.717 224.391 329.073L224.387 329.077Z" fill="#F9A58F"></path><path d="M159.807 342.839C159.807 342.839 164.353 343.372 165.957 343.696C167.561 344.021 169.36 343.141 169.498 344.083C169.636 345.025 166.548 345.673 166.548 345.673C166.548 345.673 169.156 347.749 170.058 348.264C170.956 348.779 171.733 349.601 171.182 350.126C170.111 351.139 167.534 348.708 167.534 348.708C167.534 348.708 171.227 350.397 170.28 351.365C169.494 352.17 165.81 349.984 165.81 349.984C165.81 349.984 169.276 351.037 169.32 351.881C169.347 352.347 169.303 352.583 167.876 352.236C166.281 351.85 166.366 351.867 166.366 351.867C166.366 351.867 167.232 352.218 167.463 352.938C167.632 353.463 167.281 354.027 165.401 353.276C163.131 352.37 159.047 349.246 157.621 346.731L159.803 342.843L159.807 342.839Z" fill="#F9A58F"></path><path d="M151.463 301.222C141.941 305.755 134.551 327.94 137.04 334.432C139.95 342.034 156.919 347.997 156.919 347.997L160.971 340.768C160.971 340.768 148.432 333.29 148.392 331.864C148.335 329.789 156.599 319.342 156.599 319.342L151.467 301.222H151.463Z" fill="#F5FFFF"></path><path d="M156.915 348.108C156.955 348.108 156.995 348.086 157.013 348.051L161.065 340.821C161.096 340.768 161.078 340.706 161.029 340.67L151.525 334.565C151.472 334.53 151.405 334.547 151.37 334.601C151.334 334.654 151.352 334.721 151.405 334.756L160.821 340.804L156.866 347.851L153.151 346.367C153.094 346.344 153.027 346.371 153.005 346.429C152.982 346.487 153.009 346.553 153.067 346.575L156.875 348.095C156.875 348.095 156.902 348.104 156.915 348.104V348.108Z" fill="#0E1015"></path><path d="M188.205 325.954C188.205 325.954 188.213 325.954 188.218 325.954C188.28 325.95 188.325 325.892 188.32 325.83L187.529 317.756C187.525 317.694 187.467 317.649 187.405 317.654C187.343 317.658 187.298 317.716 187.303 317.778L188.093 325.852C188.098 325.91 188.147 325.954 188.205 325.954Z" fill="#0E1015"></path><path d="M587.891 331.048L621.954 324.851L600.681 207.911L566.618 214.108L587.891 331.048Z" fill="#705DED"></path><path d="M608.323 301.258C607.523 296.85 603.297 293.926 598.885 294.726C594.477 295.526 591.554 299.752 592.353 304.159C593.158 308.567 597.379 311.491 601.791 310.691C606.199 309.887 609.123 305.666 608.323 301.258Z" fill="#705DED"></path><path d="M600.347 311.726C596.095 311.726 592.309 308.687 591.522 304.359C591.091 302 591.607 299.618 592.971 297.645C594.335 295.673 596.383 294.353 598.743 293.926C603.613 293.038 608.292 296.281 609.176 301.147C610.06 306.017 606.821 310.696 601.951 311.58C601.409 311.678 600.871 311.726 600.342 311.726H600.347ZM600.356 295.495C599.925 295.495 599.489 295.535 599.054 295.615C597.148 295.961 595.49 297.028 594.388 298.623C593.286 300.218 592.869 302.142 593.215 304.053C593.931 307.99 597.716 310.607 601.653 309.891C605.59 309.176 608.207 305.39 607.492 301.453C606.856 297.957 603.795 295.495 600.356 295.495Z" fill="#F5FFFF"></path><g opacity="0.7"><path d="M586.607 283.91L606.554 280.281L594.597 214.55L574.649 218.179L586.607 283.91Z" fill="#F5FFFF"></path></g><path d="M577.9 222.761L592.768 220.056L592.289 217.42L577.421 220.124L577.9 222.761Z" fill="#E33A32"></path><path d="M595.115 259.602L597.819 274.47L599.135 274.231L596.431 259.363L595.115 259.602Z" fill="#7C9AF2"></path><path d="M591.722 240.96L594.426 255.828L595.746 255.588L593.042 240.72L591.722 240.96Z" fill="#7C9AF2"></path><path d="M587.545 260.972L590.25 275.84L591.57 275.599L588.866 260.732L587.545 260.972Z" fill="#7C9AF2"></path><path d="M584.157 242.334L586.861 257.202L588.177 256.963L585.473 242.095L584.157 242.334Z" fill="#7C9AF2"></path><path d="M590.799 256.443L594.198 275.132L595.518 274.892L592.119 256.203L590.799 256.443Z" fill="#7C9AF2"></path><path d="M586.536 233.007L589.936 251.695L591.252 251.456L587.852 232.767L586.536 233.007Z" fill="#7C9AF2"></path><path d="M615.675 398.247C615.675 398.247 616.991 407.52 616.928 407.623C616.866 407.725 617.422 408.671 617.422 408.671L619.728 409.187L621.887 408.302C621.887 408.302 620.532 399.536 620.798 398.465C621.065 397.394 615.675 398.252 615.675 398.252V398.247Z" fill="#F9A58F"></path><path d="M621.887 408.302C621.887 408.302 619.172 409.129 616.946 407.48C616.946 407.48 607.89 410.448 608.055 412.999C608.055 412.999 607.642 413.741 611.512 413.736C615.382 413.736 621.394 413.816 621.558 413.736C621.722 413.652 622.46 414.092 621.887 408.302Z" fill="#0E1015"></path><path d="M647.61 397.705C647.61 397.705 650.356 406.658 650.311 406.769C650.267 406.88 650.965 407.729 650.965 407.729L653.324 407.876L655.319 406.663C655.319 406.663 652.609 398.216 652.706 397.114C652.804 396.016 647.614 397.7 647.614 397.7L647.61 397.705Z" fill="#F9A58F"></path><path d="M655.315 406.667C655.315 406.667 652.76 407.907 650.307 406.627C650.307 406.627 641.825 410.973 642.385 413.465C642.385 413.465 642.096 414.261 645.917 413.657C649.739 413.052 655.688 412.19 655.839 412.084C655.99 411.977 656.786 412.297 655.315 406.663V406.667Z" fill="#0E1015"></path><path d="M643.789 324.408L610.059 323.257C610.059 323.257 606.096 347.633 613.072 405.316H623.532C623.532 405.316 625.749 345.9 627.65 342.488C629.552 339.075 636.208 379.643 646.668 404.05L656.177 401.197C656.177 401.197 647.619 358.408 646.352 347.313C645.086 336.218 643.789 324.408 643.789 324.408Z" fill="#E33A32"></path><path d="M577.29 267.337C577.29 267.337 575.495 266.289 575.241 266.218C574.988 266.146 574.633 266.235 575.735 267.404C576.837 268.573 579.969 270.074 581.8 270.576L584.15 268.288C584.15 268.288 582.822 266.298 582.355 265.329C581.889 264.36 580.938 262.943 580.542 263.369C580.169 263.769 581.182 265.462 581.182 265.462C581.182 265.462 579.982 264.702 579.511 264.214C579.041 263.725 576.988 261.73 576.477 262.214C576.112 262.556 578.547 265.067 578.547 265.067C578.547 265.067 575.424 262.147 575.086 262.721C574.739 263.303 578.014 266.369 578.014 266.369C578.014 266.369 576.135 264.978 575.757 264.262C575.69 264.138 575.095 265.076 575.757 265.778L577.294 267.342L577.29 267.337Z" fill="#F9A58F"></path><path d="M629.788 257.9C629.864 257.9 629.943 257.886 630.01 257.846C630.215 257.735 630.272 257.491 630.143 257.296C629.752 256.705 628.575 255.78 626.926 256.509C626.713 256.602 626.633 256.842 626.744 257.047C626.86 257.251 627.122 257.34 627.335 257.247C628.69 256.647 629.37 257.651 629.401 257.691C629.486 257.82 629.632 257.895 629.784 257.9H629.788Z" fill="#0E1015"></path><path d="M627.317 255.474H627.326C627.344 255.385 627.361 255.291 627.379 255.198C628.321 251.066 632.884 248.684 637.399 250.093C641.162 251.266 643.646 254.816 643.206 258.389C643.042 259.717 642.518 260.881 641.736 261.841C640.625 263.343 639.656 264.627 638.705 265.653C637.132 267.355 636.261 269.537 636.168 271.834L636.07 274.082C630.707 275.242 628.712 272.461 628.712 272.461L629.663 268.875C629.747 268.457 629.463 268.035 629.019 267.897C629.019 267.897 629.014 267.897 629.01 267.897C622.252 265.787 626.948 260.895 627.313 255.478L627.317 255.474Z" fill="#F9A58F"></path><path d="M639.692 254.509L643.029 259.313C642.775 260.264 642.331 261.112 641.74 261.841C640.629 263.343 639.661 264.622 638.71 265.653C638.052 266.364 637.528 267.16 637.119 268.013C637.119 268.013 637.115 268.013 637.11 268.013C635.924 268.142 630.263 265.36 630.183 264.258C630.103 263.156 632.125 259.721 630.059 259.348C628.117 258.997 628.85 252.892 628.85 252.892L634.089 252.581L639.692 254.505V254.509Z" fill="#0E1015"></path><path d="M630.734 260.202C630.716 259.931 630.583 259.673 630.379 259.473C629.957 259.06 629.152 258.455 628.273 258.74C626.98 259.153 627.788 262.143 630.099 261.868C630.099 261.868 630.832 261.632 630.734 260.202Z" fill="#E27D7D"></path><path d="M644.624 255.376C644.517 254.514 644.304 253.665 644.095 252.817C643.989 252.39 643.882 251.968 643.789 251.541C643.722 251.244 643.74 250.644 643.438 250.431C643.056 250.164 642.638 251.075 642.607 251.297C642.527 251.821 642.727 252.368 642.709 252.901C642.762 251.475 641.163 250.186 639.998 249.426C638.719 248.591 637.275 247.938 635.866 247.334C635.542 247.196 635.209 247.058 634.858 247.036C633.605 246.965 634.067 247.925 634.355 248.551C634.364 248.573 633.387 248.36 633.28 248.333C631.921 247.982 630.472 248.067 629.223 248.578C628.788 248.756 628.375 249.16 628.757 249.622C628.984 249.897 629.414 250.075 629.774 250.093C628.921 250.049 628.024 250.106 627.251 250.408C626.762 250.6 626.055 250.982 625.966 251.524C625.878 252.057 626.469 252.51 626.94 252.737C628.17 253.332 629.614 253.399 630.912 253.803C632.356 254.252 633.738 254.887 635.009 255.696C636.057 256.363 637.021 257.145 638.066 257.811C638.945 258.375 639.879 258.86 640.829 259.304C641.46 259.602 642.522 260.384 643.082 259.886C644.3 258.806 644.815 256.936 644.624 255.367V255.376Z" fill="#0E1015"></path><path d="M640.061 276.14C636.871 273.78 634.009 273.003 630.059 272.589C626.918 272.261 622.99 272.043 620.088 272.527C616.107 273.194 605.536 276.331 601.262 276.242C596.054 276.131 583.551 267.368 583.551 267.368L581.476 271.088C581.476 271.088 587.008 284.315 596.094 286.19C605.181 288.065 612.641 288.137 612.641 288.137L608.922 326.585C608.922 326.585 626.26 333.53 644.695 325.505C644.695 325.505 644.531 309.087 644.66 292.749C644.718 285.297 643.98 279.041 640.056 276.144L640.061 276.14Z" fill="#F8BA07"></path><path d="M409.576 352.387H366.631V365.108H409.576V352.387Z" fill="#F5FFFF"></path><path d="M384.511 355.196H370.817V355.96H384.511V355.196Z" fill="#6C7AFF"></path><path d="M400.365 355.196H386.67V355.96H400.365V355.196Z" fill="#6C7AFF"></path><path d="M384.511 358.057H370.817V358.821H384.511V358.057Z" fill="#6C7AFF"></path><path d="M384.511 360.914H370.817V361.678H384.511V360.914Z" fill="#6C7AFF"></path><path d="M400.365 358.057H386.67V358.821H400.365V358.057Z" fill="#6C7AFF"></path><path d="M450.388 344.003H430.855V349.788H450.388V344.003Z" fill="#F5FFFF"></path><path d="M438.986 345.278H432.757V345.624H438.986V345.278Z" fill="#6C7AFF"></path><path d="M446.198 345.278H439.969V345.624H446.198V345.278Z" fill="#6C7AFF"></path><path d="M438.986 346.58H432.757V346.926H438.986V346.58Z" fill="#6C7AFF"></path><path d="M438.986 347.881H432.757V348.228H438.986V347.881Z" fill="#6C7AFF"></path><path d="M446.198 346.58H439.969V346.926H446.198V346.58Z" fill="#6C7AFF"></path></svg> 